<?xml version="1.0" encoding="UTF-8" standalone="no"?>
<svg
   width="24"
   height="24"
   viewBox="0 0 24 24"
   fill="none"
   stroke="currentColor"
   stroke-width="2"
   stroke-linecap="round"
   stroke-linejoin="round"
   class="feather feather-box"
   version="1.1"
   id="svg73"
   xmlns:xlink="http://www.w3.org/1999/xlink"
   xmlns="http://www.w3.org/2000/svg"
   xmlns:svg="http://www.w3.org/2000/svg">
  <defs
     id="defs77">
    <linearGradient
       id="linearGradient5518">
      <stop
         style="stop-color:#844cfc;stop-opacity:0.5"
         offset="0"
         id="stop5514" />
      <stop
         style="stop-color:#e14266;stop-opacity:0.5"
         offset="1"
         id="stop5516" />
    </linearGradient>
    <linearGradient
       id="linearGradient1324">
      <stop
         style="stop-color:#834cfc;stop-opacity:1"
         offset="0"
         id="stop1320" />
      <stop
         style="stop-color:#e14563;stop-opacity:1"
         offset="1"
         id="stop1322" />
    </linearGradient>
    <linearGradient
       id="linearGradient1318">
      <stop
         style="stop-color:#834cfc;stop-opacity:1"
         offset="0"
         id="stop1314" />
      <stop
         style="stop-color:#e14563;stop-opacity:1"
         offset="1"
         id="stop1316" />
    </linearGradient>
    <linearGradient
       id="linearGradient299">
      <stop
         style="stop-color:#834cfc;stop-opacity:1"
         offset="0"
         id="stop295" />
      <stop
         style="stop-color:#e14563;stop-opacity:1"
         offset="1"
         id="stop297" />
    </linearGradient>
    <linearGradient
       xlink:href="#linearGradient299"
       id="linearGradient301"
       x1="4.7211318"
       y1="16.397797"
       x2="18.975727"
       y2="7.6870713"
       gradientUnits="userSpaceOnUse" />
    <linearGradient
       xlink:href="#linearGradient1324"
       id="linearGradient303"
       x1="4.7211318"
       y1="16.397797"
       x2="18.975727"
       y2="7.6870713"
       gradientUnits="userSpaceOnUse" />
    <linearGradient
       xlink:href="#linearGradient1318"
       id="linearGradient305"
       x1="4.7211318"
       y1="16.397797"
       x2="18.975727"
       y2="7.6870713"
       gradientUnits="userSpaceOnUse" />
    <linearGradient
       xlink:href="#linearGradient5518"
       id="linearGradient5520"
       x1="18.975727"
       y1="7.6870713"
       x2="4.7211318"
       y2="16.397797"
       gradientUnits="userSpaceOnUse" />
  </defs>
  <path
     d="M21 16V8a2 2 0 0 0-1-1.73l-7-4a2 2 0 0 0-2 0l-7 4A2 2 0 0 0 3 8v8a2 2 0 0 0 1 1.73l7 4a2 2 0 0 0 2 0l7-4A2 2 0 0 0 21 16z"
     id="path67"
     style="fill-opacity:1;stroke:url(#linearGradient301);fill:url(#linearGradient5520)" />
  <polyline
     points="3.27 6.96 12 12.01 20.73 6.96"
     id="polyline69"
     style="fill-opacity:1;stroke:url(#linearGradient305)" />
  <line
     x1="12"
     y1="22.08"
     x2="12"
     y2="12"
     id="line71"
     style="fill-opacity:1;stroke:url(#linearGradient303)" />
</svg>
